<svg viewBox="0 0 48 48" xmlns="http://www.w3.org/2000/svg"><path d="m43 48h-38a5.006 5.006 0 0 1 -5-5 1 1 0 0 1 1-1h46a1 1 0 0 1 1 1 5.006 5.006 0 0 1 -5 5zm-40.829-4a3.006 3.006 0 0 0 2.829 2h38a3.006 3.006 0 0 0 2.829-2z"/><path d="m19 43h10v2h-10z"/><path d="m46 43h-2v-29a1 1 0 0 0 -1-1h-4v-2h4a3 3 0 0 1 3 3z"/><path d="m4 43h-2v-29a3 3 0 0 1 3-3h4v2h-4a1 1 0 0 0 -1 1z"/><path d="m6 36h37v2h-37z"/><path d="m10 37h-2v-34a3 3 0 0 1 3-3h26a3 3 0 0 1 3 3v3h-2v-3a1 1 0 0 0 -1-1h-26a1 1 0 0 0 -1 1z"/><path d="m9 8h27v2h-27z"/><path d="m26.648 25.176a1 1 0 0 1 -.707-.293l-2.824-2.823a1 1 0 0 1 0-1.414l19.767-19.768a3.068 3.068 0 0 1 4.239 0 3 3 0 0 1 0 4.238l-19.768 19.767a1 1 0 0 1 -.707.293zm-1.41-3.823 1.41 1.409 19.06-19.062a1 1 0 0 0 0-1.41 1.019 1.019 0 0 0 -1.409 0z"/><path d="m21 28a1 1 0 0 1 -.895-1.447l2.824-5.648 1.789.895-1.482 2.964 2.964-1.483.9 1.789-5.653 2.83a1 1 0 0 1 -.447.1z"/><path d="m38.356 6.648h2v3.994h-2z" transform="matrix(.70710678 -.70710678 .70710678 .70710678 5.414 30.36)"/><path d="m38 12h2v25h-2z"/><path d="m12 4h2v2h-2z"/><path d="m16 4h2v2h-2z"/><path d="m20 4h2v2h-2z"/><path d="m17 22a5 5 0 1 1 5-5 5.006 5.006 0 0 1 -5 5zm0-8a3 3 0 1 0 3 3 3 3 0 0 0 -3-3z"/><path d="m20.501 18.378h2v4.244h-2z" transform="matrix(.70710678 -.70710678 .70710678 .70710678 -8.199 21.208)"/><path d="m32 32h-15a1 1 0 0 1 -1-1v-10h2v9h11.586l-4.295-4.3 1.414-1.414 6 6a1 1 0 0 1 -.705 1.714z"/><path d="m34 30h2v2h-2z"/><path d="m12 30h2v2h-2z"/></svg>