<svg height="32" viewBox="0 0 32 32" width="32" xmlns="http://www.w3.org/2000/svg"><path d="m27 24a2.9609 2.9609 0 0 0 -1.2854.3008l-4.3005-4.3008h-3.4141v2h2.5859l3.7146 3.7148a2.9665 2.9665 0 0 0 -.3005 1.2852 3 3 0 1 0 3-3zm0 4a1 1 0 1 1 1-1 1.0009 1.0009 0 0 1 -1 1z"/><path d="m27 13a2.9948 2.9948 0 0 0 -2.8157 2h-6.1843v2h6.1843a2.9947 2.9947 0 1 0 2.8157-4zm0 4a1 1 0 1 1 1-1 1.0009 1.0009 0 0 1 -1 1z"/><path d="m27 2a3.0033 3.0033 0 0 0 -3 3 2.9657 2.9657 0 0 0 .3481 1.373l-3.7524 3.627h-2.5957v2h3.4043l4.3989-4.2524a2.9987 2.9987 0 1 0 1.1968-5.7476zm0 4a1 1 0 1 1 1-1 1.0009 1.0009 0 0 1 -1 1z"/><path d="m18 6h2v-2h-2a3.9756 3.9756 0 0 0 -3 1.3823 3.9756 3.9756 0 0 0 -3-1.3823h-1a9.01 9.01 0 0 0 -9 9v6a9.01 9.01 0 0 0 9 9h1a3.9756 3.9756 0 0 0 3-1.3823 3.9756 3.9756 0 0 0 3 1.3823h2v-2h-2a2.0023 2.0023 0 0 1 -2-2v-16a2.0023 2.0023 0 0 1 2-2zm-6 20h-1a7.0047 7.0047 0 0 1 -6.92-6h1.92v-2h-2v-4h3a3.0033 3.0033 0 0 0 3-3v-2h-2v2a1.0009 1.0009 0 0 1 -1 1h-2.92a7.0047 7.0047 0 0 1 6.92-6h1a2.0023 2.0023 0 0 1 2 2v4h-2v2h2v4h-2a3.0033 3.0033 0 0 0 -3 3v2h2v-2a1.0009 1.0009 0 0 1 1-1h2v4a2.0023 2.0023 0 0 1 -2 2z"/><path d="m0 0h32v32h-32z" fill="none"/></svg>